<svg width="177" height="148" viewBox="0 0 177 148" fill="none" xmlns="http://www.w3.org/2000/svg">
<path d="M172 4.61067C160.948 16.2932 137.843 15.1121 137.843 15.1121C129.9 15.1925 122.858 15.6624 116.609 16.4033C106.805 4.16403 87.3289 0.542206 71.759 0.542206C38.8169 0.542206 4.15511 15.8953 0.340555 41.8196C-2.44138 60.7352 12.503 68.7514 22.0405 69.0944C25.1193 69.2044 21.9239 65.826 19.1652 64.9179C16.3049 63.976 14.5895 62.5683 13.9364 54.0863C11.9751 29.6819 38.9462 5.63096 73.9791 5.63096C83.9406 5.63096 97.1442 9.22738 102.309 18.8545C82.8846 23.3887 75.2577 30.9266 75.2577 35.1242C75.2577 41.6396 75.4909 54.6706 77.9378 54.6706C79.8228 54.6706 85.6199 52.7887 93.2766 51.7875C85.7026 59.4968 77.2148 67.3226 56.0322 67.1617C56.0322 67.1617 73.273 38.1236 71.8799 29.8703C70.1984 21.3862 57.9639 17.5527 58.6212 21.2888C60.4256 30.9414 16.3367 96.4919 18.4125 116.22C19.602 127.511 24.3496 132.657 27.3393 132.344C30.329 132.031 29.4321 129.761 29.0229 125.869C28.1896 117.952 49.9276 81.323 49.9276 81.323C49.9276 81.323 71.5131 82.7561 87.5643 75.233C97.8524 70.4131 114.807 61.747 121.045 44.5375C118.289 41.9783 109.718 40.6066 91.8899 43.5257C91.8877 43.5257 91.8856 43.5257 91.8835 43.5257C90.8827 43.6421 90.0197 43.7564 89.3497 43.8347C89.2861 43.8411 89.2288 43.8496 89.1694 43.8559C89.0846 43.8665 89.0019 43.875 88.9235 43.8834C88.8174 43.894 88.7157 43.9046 88.6245 43.9131C88.5863 43.9173 88.5524 43.9194 88.5164 43.9215C88.4464 43.9279 88.3806 43.9321 88.3192 43.9363C88.2874 43.9385 88.2577 43.9406 88.228 43.9406C88.1665 43.9427 88.1135 43.9427 88.0647 43.9427C88.0478 43.9427 88.0265 43.9427 88.0096 43.9427C87.9481 43.9406 87.8972 43.9342 87.859 43.9258C87.8548 43.9258 87.8548 43.9236 87.8506 43.9236C87.8188 43.9152 87.7975 43.9025 87.7848 43.8877C87.7806 43.8834 87.7806 43.8771 87.7785 43.8728C87.7742 43.858 87.7763 43.8432 87.7848 43.8242C87.7891 43.8178 87.7912 43.8115 87.7954 43.803C87.8124 43.7797 87.84 43.7543 87.876 43.7225C87.8824 43.7183 87.8845 43.7141 87.8908 43.7098C87.9375 43.6739 87.999 43.6336 88.0732 43.5871C88.0902 43.5765 88.1114 43.5638 88.1304 43.5532C88.1919 43.5172 88.2619 43.477 88.3404 43.4347C88.3722 43.4177 88.4082 43.3987 88.4421 43.3796C88.5227 43.3373 88.6118 43.2928 88.7072 43.2442C88.7454 43.2251 88.7835 43.2061 88.8238 43.187C88.9638 43.1171 89.1164 43.0452 89.286 42.9647C97.2375 39.2244 102.03 39.0762 102.03 39.0762C107.668 38.2337 117.992 37.315 136.791 36.9806C177.648 36.263 183.051 -7.06976 172 4.61067Z" fill="#FD2961"/>
<path d="M82.9292 85.0803C112.222 74.1852 114.936 90.4654 115.67 92.4319C116.404 94.3984 118.626 89.6865 118.011 86.7843C117.536 84.5384 117.317 78.5416 107.831 73.3491C104.129 71.3233 103.372 71.2704 102.939 71.5033C85.3083 80.9716 69.7998 79.6338 69.7998 79.6338C65.6757 78.8676 67.2384 80.6076 67.2384 80.6076C56.7086 87.8343 46.2764 100.692 47.5062 112.933C49.0286 128.098 52.7372 147.458 82.9165 147.458C110.795 147.458 145.453 115.429 145.453 84.3648C145.453 68.8911 139.134 58.4448 129.709 52.0457C129.028 52.0648 128.339 51.9717 127.656 51.9378C124.486 51.7811 121.346 53.1465 119.12 55.3903C130.288 60.316 140.09 70.0173 140.09 83.317C140.09 102.398 118.505 124.901 86.5953 126.408C62.3806 127.552 56.0598 121.589 55.5488 113.278C55.1162 106.282 57.3808 93.3675 82.9292 85.0803Z" fill="#FD2961"/>
</svg>
